<?xml version="1.0" standalone="no"?>
<!DOCTYPE svg PUBLIC "-//W3C//DTD SVG 20010904//EN"
 "http://www.w3.org/TR/2001/REC-SVG-20010904/DTD/svg10.dtd">
<svg version="1.0" xmlns="http://www.w3.org/2000/svg"
 width="700.000000pt" height="700.000000pt" viewBox="0 0 700.000000 700.000000"
 preserveAspectRatio="xMidYMid meet">
<metadata>
Created by potrace 1.14, written by Peter Selinger 2001-2017
</metadata>
<g transform="translate(0.000000,700.000000) scale(0.100000,-0.100000)"
fill="#000000" stroke="none">
<path d="M3240 6922 c-85 -41 -157 -76 -160 -77 -3 0 -48 -22 -100 -47 -230
-111 -422 -204 -505 -243 -49 -23 -152 -72 -227 -109 -76 -36 -200 -96 -275
-132 -76 -37 -192 -92 -258 -124 -66 -32 -187 -90 -270 -130 -82 -40 -190 -91
-240 -115 -105 -50 -286 -137 -546 -262 -201 -98 -251 -138 -266 -212 -4 -20
-7 -857 -7 -1861 l0 -1825 22 -41 c12 -23 34 -53 51 -66 16 -14 182 -110 368
-213 410 -228 412 -229 466 -259 23 -13 231 -128 462 -256 231 -128 439 -243
463 -256 23 -13 61 -35 85 -48 23 -13 69 -38 102 -56 33 -19 274 -152 535
-297 261 -145 490 -268 508 -273 66 -18 114 -4 242 67 78 44 775 430 835 463
28 15 255 141 505 280 250 139 687 381 970 537 283 157 530 300 549 318 71 69
66 -74 65 1955 -1 2020 4 1860 -66 1927 -29 28 -183 107 -543 278 -49 23 -155
74 -235 113 -627 302 -683 329 -1005 482 -55 26 -181 87 -280 135 -99 48 -216
104 -260 125 -44 21 -143 68 -220 105 -77 37 -200 96 -273 131 l-134 64 -101
-1 -102 -1 -155 -76z m397 -423 c120 -58 210 -101 498 -239 66 -32 176 -85
245 -118 69 -32 193 -92 275 -132 308 -149 380 -183 385 -185 6 -2 145 -68
385 -184 105 -51 256 -124 338 -163 81 -39 147 -74 147 -78 0 -5 -222 -130
-625 -352 -22 -13 -82 -46 -133 -75 -52 -29 -95 -53 -97 -53 -2 0 -70 -38
-152 -83 -81 -46 -170 -96 -198 -112 -27 -15 -68 -38 -90 -49 -146 -79 -275
-153 -303 -175 -71 -53 -99 -167 -61 -252 39 -86 116 -133 210 -127 61 4 98
21 319 148 36 20 94 53 130 72 36 19 101 55 145 80 44 25 107 60 140 78 33 18
179 99 325 180 146 81 292 162 325 180 33 18 94 52 135 75 107 60 190 105 195
105 3 0 5 -290 5 -645 0 -355 -4 -645 -8 -645 -4 0 -8 -34 -9 -76 -5 -142 -65
-372 -131 -499 -200 -387 -538 -635 -967 -709 -75 -13 -320 -15 -371 -3 -12 3
-39 8 -60 11 -120 20 -298 86 -418 157 l-33 19 18 78 c39 159 20 316 -54 457
-32 60 -39 70 -87 126 l-25 30 -80 -80 c-44 -44 -82 -81 -85 -81 -3 0 -75 70
-160 155 -85 86 -170 165 -187 176 -87 55 -190 -39 -149 -135 8 -17 63 -79
123 -137 59 -59 133 -132 162 -163 l55 -56 -125 -125 c-68 -69 -132 -130 -141
-136 -15 -8 -47 20 -193 166 -97 96 -181 175 -188 176 -7 0 -20 2 -30 4 -51
10 -117 -50 -117 -104 0 -39 19 -63 193 -238 l171 -172 -83 -83 -84 -82 48
-42 c176 -152 466 -190 678 -88 48 23 85 21 101 -5 4 -5 21 -17 39 -27 216
-112 332 -159 482 -194 81 -20 98 -23 215 -39 65 -9 367 -8 405 2 11 3 43 8
70 11 68 9 225 51 310 83 240 90 459 232 637 414 37 38 70 69 73 69 2 0 5
-144 5 -320 l0 -320 -38 -23 c-32 -20 -120 -70 -312 -175 -25 -14 -49 -28 -55
-32 -5 -4 -44 -25 -85 -47 -41 -22 -96 -52 -122 -67 -27 -14 -67 -37 -90 -49
-104 -57 -170 -94 -266 -149 -57 -32 -105 -58 -106 -58 -2 0 -83 -45 -181
-100 -98 -55 -179 -100 -179 -100 -1 0 -231 -128 -511 -283 -281 -156 -512
-283 -513 -281 -2 1 -5 186 -6 411 -1 395 -2 409 -23 448 -41 78 -106 117
-193 117 -87 0 -152 -39 -193 -117 -21 -39 -22 -52 -24 -440 -1 -220 -2 -404
-2 -408 -1 -13 -37 1 -114 47 -40 23 -112 64 -162 90 -49 27 -94 51 -100 56
-5 4 -41 24 -80 45 -38 21 -108 59 -155 85 -47 26 -107 60 -135 75 -27 15 -76
43 -108 61 -32 19 -60 34 -62 34 -2 0 -42 22 -90 50 -48 27 -88 50 -90 50 -2
0 -97 52 -212 116 -257 143 -276 154 -443 247 -74 41 -155 86 -180 99 -74 42
-220 122 -295 163 -38 21 -92 51 -118 67 -26 15 -50 28 -53 28 -3 0 -19 9 -35
20 l-28 21 0 1544 c-1 850 3 1545 7 1545 28 0 189 -48 254 -75 198 -84 327
-180 503 -376 174 -194 214 -238 247 -273 20 -23 50 -56 67 -74 l29 -33 -59
-82 c-119 -165 -158 -275 -158 -455 0 -129 24 -241 74 -349 l35 -75 32 20 c52
31 538 312 588 340 25 13 52 31 61 38 8 8 18 14 21 14 3 0 88 48 189 106 101
59 198 114 214 123 17 9 32 19 33 24 2 4 8 7 13 7 5 0 30 13 56 29 27 15 92
54 146 85 103 60 104 62 66 110 -5 6 -29 36 -53 66 -107 135 -299 250 -461
278 -107 18 -398 -3 -434 -31 -10 -9 -21 -2 -50 29 -138 151 -202 222 -219
241 -61 72 -205 227 -262 284 -158 156 -410 312 -605 374 l-40 13 170 82 c94
45 231 111 305 147 74 36 176 85 225 108 50 24 158 75 240 115 83 40 197 95
255 122 58 28 201 97 319 154 117 57 215 104 217 104 3 0 400 191 559 270 44
21 85 39 92 39 6 1 69 -27 140 -60z"/>
</g>
</svg>
